<?xml version="1.0" encoding="utf-8"?>
<!-- Generator: Adobe Illustrator 24.2.3, SVG Export Plug-In . SVG Version: 6.00 Build 0)  -->
<svg version="1.1" id="Capa_1" xmlns="http://www.w3.org/2000/svg" xmlns:xlink="http://www.w3.org/1999/xlink" x="0px" y="0px"
	 viewBox="0 0 62.88 62.32" style="enable-background:new 0 0 62.88 62.32;" xml:space="preserve">
<path class="st0" d="M48.61,17.83c-6.99,0-12.79,5.03-14.02,11.66h-6.32c-1.22-6.63-7.03-11.66-14.02-11.66
	C6.39,17.83,0,24.22,0,32.09c0,7.88,6.39,14.26,14.26,14.26c7.06,0,12.9-5.13,14.05-11.86h6.26c1.14,6.73,6.99,11.86,14.05,11.86
	c7.88,0,14.26-6.39,14.26-14.26C62.88,24.22,56.49,17.83,48.61,17.83z M14.26,41.36C9.16,41.36,5,37.2,5,32.09s4.16-9.26,9.26-9.26
	c5.11,0,9.26,4.16,9.26,9.26S19.37,41.36,14.26,41.36z M48.61,41.36c-5.11,0-9.26-4.16-9.26-9.26s4.16-9.26,9.26-9.26
	c5.11,0,9.26,4.16,9.26,9.26S53.72,41.36,48.61,41.36z"/>
</svg>
